<svg id="Ebene_1" data-name="Ebene 1" xmlns="http://www.w3.org/2000/svg" viewBox="0 0 170.08 170.08"><defs><style>.cls-1{fill:#f9383f;}.cls-2{fill:#fff;}</style></defs><title>everyday_favicon_rot_RGB</title><path class="cls-1" d="M85,170.08A85,85,0,1,0,0,85a85,85,0,0,0,85,85"/><path class="cls-2" d="M107.85,99.13C105,107,98.73,112.32,87.57,112.32c-12,0-22.3-8.12-22.91-19.47h70.17a65.32,65.32,0,0,0,.6-9.53c0-32.45-19.26-51.72-50.49-51.72-26.16,0-50.3,20.69-50.3,53.14,0,33.86,24.75,53.74,52.53,53.74,25.55,0,41.57-14.61,46.44-32ZM65.27,73c.61-7.5,7.09-17,20.07-17,14.6,0,19.88,9.33,20.28,17Z"/></svg>